<?xml version="1.0" standalone="no"?>
<!DOCTYPE svg PUBLIC "-//W3C//DTD SVG 20010904//EN"
 "http://www.w3.org/TR/2001/REC-SVG-20010904/DTD/svg10.dtd">
<svg version="1.0" xmlns="http://www.w3.org/2000/svg"
 width="112.000000pt" height="111.000000pt" viewBox="0 0 112.000000 111.000000"
 preserveAspectRatio="xMidYMid meet">
<metadata>
Created by potrace 1.12, written by Peter Selinger 2001-2015
</metadata>
<g transform="translate(0.000000,111.000000) scale(0.100000,-0.100000)"
fill="#000000" stroke="none">
<path d="M557 1093 c-13 -13 -19 -14 -31 -3 -13 10 -19 10 -31 0 -8 -7 -25
-10 -40 -6 -18 5 -27 2 -32 -9 -4 -11 -13 -15 -28 -11 -14 4 -28 0 -36 -10 -7
-8 -21 -13 -31 -11 -11 3 -22 -2 -28 -14 -6 -11 -21 -19 -35 -19 -18 0 -25 -5
-25 -20 0 -15 -7 -20 -24 -20 -18 0 -25 -6 -28 -22 -2 -15 -11 -24 -25 -26
-17 -3 -23 -10 -23 -28 0 -17 -5 -24 -20 -24 -15 0 -20 -7 -20 -26 0 -17 -6
-28 -19 -31 -13 -3 -17 -11 -13 -25 3 -13 -1 -26 -12 -34 -11 -8 -16 -20 -12
-32 4 -11 0 -24 -9 -32 -9 -7 -13 -21 -10 -31 3 -10 0 -27 -6 -38 -10 -16 -10
-23 1 -36 11 -14 11 -18 -3 -32 -15 -16 -15 -18 0 -35 13 -15 14 -20 2 -34
-11 -14 -11 -18 4 -29 13 -9 16 -20 12 -38 -5 -17 -2 -26 10 -31 12 -4 15 -13
11 -30 -5 -19 -1 -26 14 -31 15 -5 19 -12 14 -29 -4 -18 -1 -25 15 -29 13 -3
21 -13 21 -27 0 -14 8 -24 20 -27 11 -3 23 -16 26 -29 4 -14 14 -24 24 -24 10
0 22 -9 25 -20 4 -13 15 -20 31 -20 18 0 24 -5 24 -21 0 -17 5 -20 25 -16 18
3 29 -1 36 -14 7 -14 17 -17 33 -13 16 4 25 0 30 -11 4 -12 13 -15 30 -11 15
4 28 0 36 -9 9 -11 17 -12 32 -4 16 9 24 7 36 -5 14 -14 17 -14 34 1 14 13 20
13 33 3 12 -10 18 -10 30 0 8 7 25 10 40 6 18 -5 27 -2 32 9 4 11 13 15 28 11
14 -4 28 0 36 10 7 8 21 13 31 11 11 -3 22 2 28 14 6 11 21 19 35 19 18 0 25
5 25 20 0 15 7 20 24 20 18 0 25 6 28 22 2 15 11 24 26 26 16 3 22 10 22 28 0
17 5 24 20 24 15 0 20 7 20 26 0 17 6 28 19 31 13 3 17 11 13 25 -3 13 1 26
12 34 11 8 16 20 12 32 -4 11 0 24 9 32 9 7 13 21 10 31 -3 10 0 27 6 38 10
15 10 23 0 35 -12 14 -11 19 2 34 15 17 15 19 0 35 -14 14 -14 18 -3 33 12 14
12 18 -3 29 -13 9 -16 20 -12 38 5 17 2 26 -10 31 -12 4 -15 13 -11 30 5 19 1
26 -14 31 -15 5 -19 12 -14 29 4 18 1 25 -15 29 -13 3 -21 13 -21 27 0 14 -8
24 -20 27 -11 3 -23 16 -26 29 -4 14 -14 24 -24 24 -10 0 -22 9 -25 20 -4 13
-15 20 -31 20 -18 0 -24 5 -24 21 0 17 -5 20 -25 16 -18 -3 -29 1 -36 14 -7
14 -17 17 -33 13 -16 -4 -25 0 -30 11 -4 12 -13 15 -30 11 -15 -4 -28 0 -36 9
-9 11 -17 12 -32 4 -15 -8 -24 -7 -37 5 -16 14 -19 14 -34 -1z m123 -54 c171
-39 330 -198 369 -369 13 -58 13 -172 0 -230 -39 -171 -198 -330 -369 -369
-58 -13 -182 -13 -240 0 -171 39 -330 198 -369 369 -13 58 -13 172 0 230 39
169 198 330 365 369 54 12 190 13 244 0z"/>
<path d="M431 1024 c-81 -22 -149 -62 -217 -129 -193 -190 -193 -490 0 -680
99 -98 212 -145 346 -145 134 0 247 47 346 145 153 151 187 372 88 567 -33 65
-132 164 -200 200 -105 56 -249 73 -363 42z m291 -21 c187 -68 318 -252 318
-448 0 -196 -129 -377 -318 -448 -81 -30 -243 -30 -324 0 -189 71 -318 252
-318 448 0 214 144 397 360 461 65 19 211 12 282 -13z"/>
<path d="M440 996 c-199 -56 -340 -238 -340 -441 0 -250 207 -455 460 -455
253 0 460 205 460 455 0 206 -142 387 -345 441 -61 17 -175 16 -235 0z m546
-543 c-26 -111 -124 -231 -231 -284 -127 -62 -263 -62 -390 0 -107 53 -205
173 -231 284 l-6 27 432 0 432 0 -6 -27z"/>
</g>
</svg>
